<mxfile host="Electron" agent="Mozilla/5.0 (Windows NT 10.0; Win64; x64) AppleWebKit/537.36 (KHTML, like Gecko) draw.io/28.0.6 Chrome/138.0.7204.100 Electron/37.2.3 Safari/537.36" version="28.0.6">
  <diagram name="Page-1" id="AgwP9kO65S-6TZ73FjnZ">
    <mxGraphModel dx="872" dy="529" grid="1" gridSize="10" guides="1" tooltips="1" connect="1" arrows="1" fold="1" page="1" pageScale="1" pageWidth="827" pageHeight="1169" math="0" shadow="0">
      <root>
        <mxCell id="0" />
        <mxCell id="1" parent="0" />
        <mxCell id="e79TKDp_4gnOyDvrIRD3-7" value="" style="edgeStyle=orthogonalEdgeStyle;rounded=0;orthogonalLoop=1;jettySize=auto;html=1;" edge="1" parent="1" source="e79TKDp_4gnOyDvrIRD3-1" target="e79TKDp_4gnOyDvrIRD3-2">
          <mxGeometry relative="1" as="geometry" />
        </mxCell>
        <mxCell id="e79TKDp_4gnOyDvrIRD3-1" value="Start" style="ellipse;whiteSpace=wrap;html=1;aspect=fixed;fillColor=#d5e8d4;strokeColor=#82b366;" vertex="1" parent="1">
          <mxGeometry x="40" y="440" width="80" height="80" as="geometry" />
        </mxCell>
        <mxCell id="e79TKDp_4gnOyDvrIRD3-8" value="" style="edgeStyle=orthogonalEdgeStyle;rounded=0;orthogonalLoop=1;jettySize=auto;html=1;" edge="1" parent="1" source="e79TKDp_4gnOyDvrIRD3-2" target="e79TKDp_4gnOyDvrIRD3-3">
          <mxGeometry relative="1" as="geometry" />
        </mxCell>
        <mxCell id="e79TKDp_4gnOyDvrIRD3-2" value="Pengumpulan Data" style="rounded=1;whiteSpace=wrap;html=1;" vertex="1" parent="1">
          <mxGeometry x="140" y="450" width="120" height="60" as="geometry" />
        </mxCell>
        <mxCell id="e79TKDp_4gnOyDvrIRD3-9" value="" style="edgeStyle=orthogonalEdgeStyle;rounded=0;orthogonalLoop=1;jettySize=auto;html=1;" edge="1" parent="1" source="e79TKDp_4gnOyDvrIRD3-3" target="e79TKDp_4gnOyDvrIRD3-4">
          <mxGeometry relative="1" as="geometry" />
        </mxCell>
        <mxCell id="e79TKDp_4gnOyDvrIRD3-3" value="Filter Data" style="rounded=1;whiteSpace=wrap;html=1;" vertex="1" parent="1">
          <mxGeometry x="280" y="450" width="120" height="60" as="geometry" />
        </mxCell>
        <mxCell id="e79TKDp_4gnOyDvrIRD3-10" value="" style="edgeStyle=orthogonalEdgeStyle;rounded=0;orthogonalLoop=1;jettySize=auto;html=1;" edge="1" parent="1" source="e79TKDp_4gnOyDvrIRD3-4" target="e79TKDp_4gnOyDvrIRD3-5">
          <mxGeometry relative="1" as="geometry" />
        </mxCell>
        <mxCell id="e79TKDp_4gnOyDvrIRD3-4" value="Input Data pada Perangkat Lunak Analisis" style="rounded=1;whiteSpace=wrap;html=1;" vertex="1" parent="1">
          <mxGeometry x="420" y="450" width="120" height="60" as="geometry" />
        </mxCell>
        <mxCell id="e79TKDp_4gnOyDvrIRD3-11" value="" style="edgeStyle=orthogonalEdgeStyle;rounded=0;orthogonalLoop=1;jettySize=auto;html=1;" edge="1" parent="1" source="e79TKDp_4gnOyDvrIRD3-5" target="e79TKDp_4gnOyDvrIRD3-6">
          <mxGeometry relative="1" as="geometry" />
        </mxCell>
        <mxCell id="e79TKDp_4gnOyDvrIRD3-5" value="Interpretasi Data" style="rounded=1;whiteSpace=wrap;html=1;" vertex="1" parent="1">
          <mxGeometry x="560" y="450" width="120" height="60" as="geometry" />
        </mxCell>
        <mxCell id="e79TKDp_4gnOyDvrIRD3-6" value="End" style="ellipse;whiteSpace=wrap;html=1;aspect=fixed;fillColor=#f8cecc;strokeColor=#b85450;" vertex="1" parent="1">
          <mxGeometry x="700" y="440" width="80" height="80" as="geometry" />
        </mxCell>
      </root>
    </mxGraphModel>
  </diagram>
</mxfile>
